<?xml version="1.0" encoding="utf-8" standalone="no"?>
<!DOCTYPE svg PUBLIC "-//W3C//DTD SVG 1.1//EN"
  "http://www.w3.org/Graphics/SVG/1.1/DTD/svg11.dtd">
<svg xmlns:xlink="http://www.w3.org/1999/xlink" width="234pt" height="237.6pt" viewBox="0 0 234 237.6" xmlns="http://www.w3.org/2000/svg" version="1.1">
 <metadata>
  <rdf:RDF xmlns:dc="http://purl.org/dc/elements/1.1/" xmlns:cc="http://creativecommons.org/ns#" xmlns:rdf="http://www.w3.org/1999/02/22-rdf-syntax-ns#">
   <cc:Work>
    <dc:type rdf:resource="http://purl.org/dc/dcmitype/StillImage"/>
    <dc:date>2026-09-23T21:50:20.415847</dc:date>
    <dc:format>image/svg+xml</dc:format>
    <dc:creator>
     <cc:Agent>
      <dc:title>Matplotlib v3.10.8, https://matplotlib.org/</dc:title>
     </cc:Agent>
    </dc:creator>
   </cc:Work>
  </rdf:RDF>
 </metadata>
 <defs>
  <style type="text/css">*{stroke-linejoin: round; stroke-linecap: butt}</style>
 </defs>
 <g id="figure_1">
  <g id="patch_1">
   <path d="M 0 237.6 
L 234 237.6 
L 234 0 
L 0 0 
z
" style="fill: #ffffff"/>
  </g>
  <g id="axes_1">
   <g id="patch_2">
    <path d="M 12.495943 71.733 
L 65.81434 71.733 
Q 70.079811 71.733 70.079811 69.427 
L 70.079811 32.531 
Q 70.079811 30.225 65.81434 30.225 
L 12.495943 30.225 
Q 8.230472 30.225 8.230472 32.531 
L 8.230472 69.427 
Q 8.230472 71.733 12.495943 71.733 
z
" clip-path="url(#p8ade2a7730)" style="fill: #dcebf5; stroke: #555555; stroke-width: 0.7; stroke-linejoin: miter"/>
   </g>
   <g id="patch_3">
    <path d="M 82.876226 65.968 
L 121.265472 65.968 
Q 125.530943 65.968 125.530943 63.662 
L 125.530943 38.296 
Q 125.530943 35.99 121.265472 35.99 
L 82.876226 35.99 
Q 78.610755 35.99 78.610755 38.296 
L 78.610755 63.662 
Q 78.610755 65.968 82.876226 65.968 
z
" clip-path="url(#p8ade2a7730)" style="fill: #ffffff; stroke: #555555; stroke-width: 0.7; stroke-linejoin: miter"/>
   </g>
   <g id="patch_4">
    <path d="M 159.654717 71.733 
L 221.504057 71.733 
Q 225.769528 71.733 225.769528 69.427 
L 225.769528 32.531 
Q 225.769528 30.225 221.504057 30.225 
L 159.654717 30.225 
Q 155.389245 30.225 155.389245 32.531 
L 155.389245 69.427 
Q 155.389245 71.733 159.654717 71.733 
z
" clip-path="url(#p8ade2a7730)" style="fill: #eeeeee; stroke: #555555; stroke-width: 0.7; stroke-linejoin: miter"/>
   </g>
   <g id="patch_5">
    <path d="M 69.949639 50.979 
Q 74.3465 50.979 77.848933 50.979 
" clip-path="url(#p8ade2a7730)" style="fill: none; stroke: #555555; stroke-width: 0.8; stroke-linecap: round"/>
    <path d="M 75.048933 49.579 
L 77.848933 50.979 
L 75.048933 52.379 
z
" clip-path="url(#p8ade2a7730)" style="fill: #555555; stroke: #555555; stroke-width: 0.8; stroke-linecap: round"/>
   </g>
   <g id="patch_6">
    <path d="M 125.401813 50.979 
Q 140.460102 50.979 154.623964 50.979 
" clip-path="url(#p8ade2a7730)" style="fill: none; stroke: #555555; stroke-width: 0.8; stroke-linecap: round"/>
    <path d="M 151.823964 49.579 
L 154.623964 50.979 
L 151.823964 52.379 
z
" clip-path="url(#p8ade2a7730)" style="fill: #555555; stroke: #555555; stroke-width: 0.8; stroke-linecap: round"/>
   </g>
   <g id="patch_7">
    <path d="M 23.159623 113.241 
L 210.840377 113.241 
Q 215.105849 113.241 215.105849 110.935 
L 215.105849 87.875 
Q 215.105849 85.569 210.840377 85.569 
L 23.159623 85.569 
Q 18.894151 85.569 18.894151 87.875 
L 18.894151 110.935 
Q 18.894151 113.241 23.159623 113.241 
z
" clip-path="url(#p8ade2a7730)" style="fill: #ffffff; stroke: #0072b2; stroke-width: 0.7; stroke-linejoin: miter"/>
   </g>
   <g id="text_1">
    <text style="font-weight: 700; font-size: 8px; font-family: 'DejaVu Sans'; text-anchor: start" x="10.363208" y="10.93775" transform="rotate(-0 10.363208 10.93775)">(a) Enumeration contract</text>
   </g>
   <g id="text_2">
    <text style="font-size: 7px; font-family: 'DejaVu Sans'" transform="translate(21.907798 45.072094)">Grounded</text>
    <text style="font-size: 7px; font-family: 'DejaVu Sans'" transform="translate(21.780923 52.910562)">candidate</text>
    <text style="font-size: 7px; font-family: 'DejaVu Sans'" transform="translate(29.156079 60.749031)">menu</text>
   </g>
   <g id="text_3">
    <text style="font-weight: 700; font-size: 7px; font-family: 'DejaVu Sans'; text-anchor: middle" x="102.070849" y="52.883219" transform="rotate(-0 102.070849 52.883219)">Policy</text>
   </g>
   <g id="text_4">
    <text style="font-size: 7px; font-family: 'DejaVu Sans'" transform="translate(159.895324 48.991328)">Submission-order</text>
    <text style="font-size: 7px; font-family: 'DejaVu Sans'" transform="translate(165.175402 56.829797)">invariant heap</text>
   </g>
   <g id="text_5">
    <text style="font-size: 7px; font-family: 'DejaVu Sans'; text-anchor: middle; fill: #555555" x="140.460094" y="46.064219" transform="rotate(-0 140.460094 46.064219)">one op</text>
   </g>
   <g id="text_6">
    <text style="font-size: 7px; font-family: 'DejaVu Sans'; text-anchor: middle" x="117" y="101.336563" transform="rotate(-0 117 101.336563)">random-valid ≡ exact reference, 48/48 additive pairs</text>
   </g>
  </g>
  <g id="axes_2">
   <g id="patch_8">
    <path d="M 12.495943 191.233 
L 65.81434 191.233 
Q 70.079811 191.233 70.079811 188.927 
L 70.079811 152.031 
Q 70.079811 149.725 65.81434 149.725 
L 12.495943 149.725 
Q 8.230472 149.725 8.230472 152.031 
L 8.230472 188.927 
Q 8.230472 191.233 12.495943 191.233 
z
" clip-path="url(#pd154b2955b)" style="fill: #fbebcb; stroke: #555555; stroke-width: 0.7; stroke-linejoin: miter"/>
   </g>
   <g id="patch_9">
    <path d="M 82.876226 185.468 
L 121.265472 185.468 
Q 125.530943 185.468 125.530943 183.162 
L 125.530943 157.796 
Q 125.530943 155.49 121.265472 155.49 
L 82.876226 155.49 
Q 78.610755 155.49 78.610755 157.796 
L 78.610755 183.162 
Q 78.610755 185.468 82.876226 185.468 
z
" clip-path="url(#pd154b2955b)" style="fill: #ffffff; stroke: #555555; stroke-width: 0.7; stroke-linejoin: miter"/>
   </g>
   <g id="patch_10">
    <path d="M 159.654717 191.233 
L 221.504057 191.233 
Q 225.769528 191.233 225.769528 188.927 
L 225.769528 152.031 
Q 225.769528 149.725 221.504057 149.725 
L 159.654717 149.725 
Q 155.389245 149.725 155.389245 152.031 
L 155.389245 188.927 
Q 155.389245 191.233 159.654717 191.233 
z
" clip-path="url(#pd154b2955b)" style="fill: #eeeeee; stroke: #555555; stroke-width: 0.7; stroke-linejoin: miter"/>
   </g>
   <g id="patch_11">
    <path d="M 69.949639 170.479 
Q 74.3465 170.479 77.848933 170.479 
" clip-path="url(#pd154b2955b)" style="fill: none; stroke: #555555; stroke-width: 0.8; stroke-linecap: round"/>
    <path d="M 75.048933 169.079 
L 77.848933 170.479 
L 75.048933 171.879 
z
" clip-path="url(#pd154b2955b)" style="fill: #555555; stroke: #555555; stroke-width: 0.8; stroke-linecap: round"/>
   </g>
   <g id="patch_12">
    <path d="M 125.401813 170.479 
Q 140.460102 170.479 154.623964 170.479 
" clip-path="url(#pd154b2955b)" style="fill: none; stroke: #555555; stroke-width: 0.8; stroke-linecap: round"/>
    <path d="M 151.823964 169.079 
L 154.623964 170.479 
L 151.823964 171.879 
z
" clip-path="url(#pd154b2955b)" style="fill: #555555; stroke: #555555; stroke-width: 0.8; stroke-linecap: round"/>
   </g>
   <g id="patch_13">
    <path d="M 23.159623 232.741 
L 210.840377 232.741 
Q 215.105849 232.741 215.105849 230.435 
L 215.105849 207.375 
Q 215.105849 205.069 210.840377 205.069 
L 23.159623 205.069 
Q 18.894151 205.069 18.894151 207.375 
L 18.894151 230.435 
Q 18.894151 232.741 23.159623 232.741 
z
" clip-path="url(#pd154b2955b)" style="fill: #ffffff; stroke: #e69f00; stroke-width: 0.7; stroke-linejoin: miter"/>
   </g>
   <g id="text_7">
    <text style="font-weight: 700; font-size: 8px; font-family: 'DejaVu Sans'; text-anchor: start" x="10.363208" y="130.43775" transform="rotate(-0 10.363208 130.43775)">(b) Choice-frontier contract</text>
   </g>
   <g id="text_8">
    <text style="font-size: 7px; font-family: 'DejaVu Sans'" transform="translate(11.611235 164.572094)">Runtime-owned</text>
    <text style="font-size: 7px; font-family: 'DejaVu Sans'" transform="translate(26.266392 172.410562)">frontier</text>
    <text style="font-size: 7px; font-family: 'DejaVu Sans'" transform="translate(28.465923 180.249031)">states</text>
   </g>
   <g id="text_9">
    <text style="font-weight: 700; font-size: 7px; font-family: 'DejaVu Sans'; text-anchor: middle" x="102.070849" y="172.383219" transform="rotate(-0 102.070849 172.383219)">Policy</text>
   </g>
   <g id="text_10">
    <text style="font-size: 7px; font-family: 'DejaVu Sans'" transform="translate(163.897902 164.572094)">Expand chosen</text>
    <text style="font-size: 7px; font-family: 'DejaVu Sans'" transform="translate(166.188762 172.410562)">state (binding</text>
    <text style="font-size: 7px; font-family: 'DejaVu Sans'" transform="translate(161.264152 180.249031)">decision budget)</text>
   </g>
   <g id="text_11">
    <text style="font-size: 7px; font-family: 'DejaVu Sans'; text-anchor: middle; fill: #555555" x="140.460094" y="165.564219" transform="rotate(-0 140.460094 165.564219)">select</text>
   </g>
   <g id="text_12">
    <text style="font-size: 7px; font-family: 'DejaVu Sans'; text-anchor: middle" x="117" y="220.836563" transform="rotate(-0 117 220.836563)">random − exact = −0.644 [−0.856, −0.422]</text>
   </g>
  </g>
 </g>
 <defs>
  <clipPath id="p8ade2a7730">
   <rect x="3.965" y="1.4" width="226.07" height="115.3"/>
  </clipPath>
  <clipPath id="pd154b2955b">
   <rect x="3.965" y="120.9" width="226.07" height="115.3"/>
  </clipPath>
 </defs>
</svg>
